
<svg width="186" height="30" viewBox="0 0 186 30" fill="none" 
xmlns="http://www.w3.org/2000/svg">
    <path d="M44.5859 6.52344C45.1016 6.58594 45.5703 6.63281 45.9922 6.66406C46.3984 6.69531 46.75 6.72656 47.0469 6.75781C47.3906 6.78906 47.6953 6.8125 47.9609 6.82812C48.2422 6.82812 48.6016 6.82031 49.0391 6.80469C49.4141 6.78906 49.8906 6.76563 50.4688 6.73438C51.0469 6.70312 51.7578 6.64844 52.6016 6.57031C52.1953 6.80469 51.8594 7.03906 51.5938 7.27344C51.3438 7.50781 51.1484 7.71875 51.0078 7.90625C50.8359 8.125 50.7109 8.34375 50.6328 8.5625C50.5859 8.85938 50.6016 9.4375 50.6797 10.2969C50.7109 10.6562 50.7578 11.1016 50.8203 11.6328C50.8984 12.1484 50.9922 12.7656 51.1016 13.4844C51.2266 14.1875 51.375 15 51.5469 15.9219C51.7344 16.8438 51.9453 17.8906 52.1797 19.0625C52.4922 18.1719 52.75 17.3828 52.9531 16.6953C53.1562 15.9922 53.3281 15.3906 53.4688 14.8906C53.625 14.3281 53.7578 13.8281 53.8672 13.3906C53.9766 12.9375 54.1094 12.3516 54.2656 11.6328C54.3906 11.0234 54.5547 10.2344 54.7578 9.26562C54.9609 8.29688 55.2109 7.10156 55.5078 5.67969L56.3516 5.79688C56.4297 6.90625 56.5078 7.88281 56.5859 8.72656C56.6797 9.57031 56.7578 10.2891 56.8203 10.8828C56.8828 11.5703 56.9453 12.1641 57.0078 12.6641C57.0703 13.1172 57.1641 13.6406 57.2891 14.2344C57.3984 14.7344 57.5391 15.3516 57.7109 16.0859C57.8828 16.8047 58.1094 17.6172 58.3906 18.5234C58.6719 17.4141 58.9219 16.4219 59.1406 15.5469C59.375 14.6719 59.5703 13.8984 59.7266 13.2266C59.8984 12.5547 60.0391 11.9766 60.1484 11.4922C60.2734 11.0078 60.375 10.6016 60.4531 10.2734C60.625 9.49219 60.7266 8.96875 60.7578 8.70312C60.7422 8.40625 60.6719 8.11719 60.5469 7.83594C60.4375 7.58594 60.2656 7.3125 60.0312 7.01562C59.7969 6.71875 59.4531 6.42969 59 6.14844C59.9531 6.17969 60.7266 6.20313 61.3203 6.21875C61.9297 6.21875 62.4141 6.21875 62.7734 6.21875H63.7109H64.5547C64.8672 6.21875 65.2734 6.21875 65.7734 6.21875C66.2891 6.20313 66.9453 6.17969 67.7422 6.14844C67.0547 6.50781 66.5 6.83594 66.0781 7.13281C65.6562 7.42969 65.3281 7.67969 65.0938 7.88281C64.8125 8.13281 64.6094 8.34375 64.4844 8.51562C64.3594 8.82812 64.1562 9.53125 63.875 10.625C63.75 11.0938 63.6094 11.6797 63.4531 12.3828C63.2969 13.0703 63.1094 13.8984 62.8906 14.8672C62.6875 15.8359 62.4531 16.9688 62.1875 18.2656C61.9219 19.5469 61.625 21.0156 61.2969 22.6719L57.2422 22.25L55.5078 14.9609C55.2422 16.2891 55.0312 17.3672 54.875 18.1953C54.7188 19.0078 54.6016 19.6406 54.5234 20.0938C54.4297 20.6406 54.375 21.0391 54.3594 21.2891C54.3438 21.5078 54.3281 21.7188 54.3125 21.9219C54.2969 22.0938 54.2734 22.2812 54.2422 22.4844C54.2266 22.6875 54.2031 22.875 54.1719 23.0469H50.0234C49.6172 21.2656 49.25 19.6953 48.9219 18.3359C48.6094 16.9609 48.3281 15.7578 48.0781 14.7266C47.8281 13.6953 47.6094 12.8203 47.4219 12.1016C47.25 11.3828 47.0938 10.7812 46.9531 10.2969C46.6406 9.17188 46.4141 8.47656 46.2734 8.21094C46.1641 8.08594 46.0234 7.9375 45.8516 7.76562C45.7109 7.625 45.5391 7.45312 45.3359 7.25C45.1172 7.03125 44.8672 6.78906 44.5859 6.52344ZM65.0938 5.23438C65.4531 5.29687 65.7812 5.34375 66.0781 5.375C66.375 5.39062 66.625 5.40625 66.8281 5.42188C67.0625 5.4375 67.2656 5.44531 67.4375 5.44531C67.6719 5.42969 67.9453 5.40625 68.2578 5.375C68.5234 5.34375 68.8438 5.30469 69.2188 5.25781C69.6094 5.21094 70.0547 5.14844 70.5547 5.07031C70.3203 5.19531 70.125 5.32031 69.9688 5.44531C69.8125 5.55469 69.6875 5.67187 69.5938 5.79688C69.4844 5.9375 69.3984 6.07031 69.3359 6.19531C69.2578 6.39844 69.1719 6.82031 69.0781 7.46094C68.9844 8.00781 68.8672 8.82031 68.7266 9.89844C68.6016 10.9766 68.4375 12.4375 68.2344 14.2812C68.7969 13.7188 69.3281 13.2969 69.8281 13.0156C70.3438 12.7188 70.7969 12.5078 71.1875 12.3828C71.6406 12.2422 72.0625 12.1719 72.4531 12.1719C72.9375 12.2188 73.4297 12.375 73.9297 12.6406C74.4453 12.8906 74.9219 13.1875 75.3594 13.5312C75.8125 13.875 76.2031 14.2422 76.5312 14.6328C76.875 15.0234 77.1172 15.3672 77.2578 15.6641C77.3516 15.8672 77.3984 16.1328 77.3984 16.4609C77.3984 16.7734 77.3672 17.1172 77.3047 17.4922C77.2422 17.8672 77.1562 18.25 77.0469 18.6406C76.9375 19.0312 76.8281 19.3984 76.7188 19.7422C76.625 20.0859 76.5391 20.3906 76.4609 20.6562C76.3828 20.9062 76.3359 21.0859 76.3203 21.1953C76.2891 21.4297 76.3047 21.6562 76.3672 21.875C76.4141 22.0625 76.5078 22.2656 76.6484 22.4844C76.7891 22.6875 77 22.8594 77.2812 23C77.0625 22.9688 76.8281 22.9453 76.5781 22.9297C76.3438 22.8984 76.1172 22.875 75.8984 22.8594C75.6484 22.8438 75.3984 22.8359 75.1484 22.8359H74.3047C74.0391 22.8359 73.7344 22.8438 73.3906 22.8594C73.0469 22.8594 72.6719 22.8672 72.2656 22.8828C72.4844 22.8047 72.6719 22.7031 72.8281 22.5781C72.9844 22.4375 73.1172 22.3047 73.2266 22.1797C73.3516 22.0391 73.4609 21.8906 73.5547 21.7344C73.6172 21.6094 73.6953 21.375 73.7891 21.0312C73.8828 20.6719 73.9688 20.2656 74.0469 19.8125C74.125 19.3438 74.1797 18.8516 74.2109 18.3359C74.2578 17.8203 74.2656 17.3281 74.2344 16.8594C74.2188 16.375 74.1484 15.9453 74.0234 15.5703C73.9141 15.1953 73.7422 14.9219 73.5078 14.75C72.8047 14.2188 72.1641 13.9609 71.5859 13.9766C71.0234 13.9766 70.4844 14.2031 69.9688 14.6562C69.7812 14.8281 69.6016 15 69.4297 15.1719C69.2734 15.3281 69.1016 15.5156 68.9141 15.7344C68.7266 15.9375 68.5547 16.1484 68.3984 16.3672C68.3984 16.6016 68.4062 16.8594 68.4219 17.1406C68.4375 17.4219 68.4531 17.6953 68.4688 17.9609C68.4844 18.2578 68.5078 18.5547 68.5391 18.8516C68.5703 19.3047 68.6172 19.75 68.6797 20.1875C68.7266 20.5625 68.7891 20.9766 68.8672 21.4297C68.9453 21.8672 69.0469 22.2656 69.1719 22.625C68.9688 22.5938 68.7578 22.5859 68.5391 22.6016C68.3203 22.6016 68.1094 22.6016 67.9062 22.6016C67.6719 22.6172 67.4453 22.625 67.2266 22.625C67.0234 22.6406 66.8125 22.6641 66.5938 22.6953C66.4062 22.7266 66.2031 22.7578 65.9844 22.7891C65.7656 22.8047 65.5547 22.8359 65.3516 22.8828C65.5391 22.5234 65.6953 22.1719 65.8203 21.8281C65.9453 21.4688 66.0469 21.1562 66.125 20.8906C66.2188 20.5781 66.2969 20.2734 66.3594 19.9766C66.4062 19.7422 66.4375 19.2969 66.4531 18.6406C66.4844 17.9688 66.5078 17.2031 66.5234 16.3438C66.5391 15.4688 66.5469 14.5469 66.5469 13.5781C66.5469 12.6094 66.5391 11.6875 66.5234 10.8125C66.5078 9.9375 66.4766 9.17188 66.4297 8.51562C66.3984 7.85938 66.3594 7.40625 66.3125 7.15625C66.25 6.90625 66.1641 6.65625 66.0547 6.40625C65.9609 6.1875 65.8359 5.97656 65.6797 5.77344C65.5234 5.55469 65.3281 5.375 65.0938 5.23438ZM78.5703 12.5234L82.8828 12.5703C82.6328 13.5234 82.4453 14.3359 82.3203 15.0078C82.2109 15.6797 82.1406 16.2422 82.1094 16.6953C82.0469 17.2109 82.0312 17.6484 82.0625 18.0078C82.1094 18.3359 82.1875 18.6875 82.2969 19.0625C82.3906 19.375 82.5312 19.7344 82.7188 20.1406C82.9062 20.5469 83.1562 20.9531 83.4688 21.3594C83.2812 21.2969 83.0781 21.25 82.8594 21.2188C82.6406 21.1875 82.4375 21.1641 82.25 21.1484C82.0312 21.1328 81.8125 21.1328 81.5938 21.1484C81.375 21.1641 81.1328 21.1875 80.8672 21.2188C80.6484 21.25 80.3828 21.2891 80.0703 21.3359C79.7578 21.3828 79.4297 21.4453 79.0859 21.5234C79.3203 20.8203 79.5 20.2109 79.625 19.6953C79.7656 19.1797 79.8672 18.75 79.9297 18.4062C79.9922 18 80.0312 17.6719 80.0469 17.4219C80.0469 17.1094 80.0469 16.7578 80.0469 16.3672C80.0469 15.9609 80.0469 15.5703 80.0469 15.1953C80.0469 14.8203 80.0391 14.4922 80.0234 14.2109C80.0078 13.9141 79.9766 13.7266 79.9297 13.6484L79.6953 13.4141C79.6016 13.3359 79.4609 13.2266 79.2734 13.0859C79.1016 12.9297 78.8672 12.7422 78.5703 12.5234ZM80.2344 8.91406C80.5625 8.74219 80.8906 8.69531 81.2188 8.77344C81.5625 8.85156 81.8281 9 82.0156 9.21875C82.2031 9.4375 82.2656 9.69531 82.2031 9.99219C82.1562 10.2891 81.9062 10.5781 81.4531 10.8594C81 11.125 80.6016 11.2188 80.2578 11.1406C79.9141 11.0625 79.6719 10.8984 79.5312 10.6484C79.3906 10.3984 79.3672 10.1094 79.4609 9.78125C79.5547 9.4375 79.8125 9.14844 80.2344 8.91406ZM84.0312 8.23438C84.5 8.28125 84.8906 8.32031 85.2031 8.35156C85.5312 8.38281 85.7969 8.40625 86 8.42188C86.2344 8.4375 86.4219 8.44531 86.5625 8.44531C86.7031 8.46094 86.8906 8.46094 87.125 8.44531C87.3281 8.42969 87.5938 8.41406 87.9219 8.39844C88.25 8.36719 88.6641 8.32031 89.1641 8.25781C89.0547 8.41406 88.9688 8.55469 88.9062 8.67969C88.8438 8.78906 88.7891 8.89062 88.7422 8.98438L88.6016 9.26562C88.5703 9.35938 88.5391 9.45312 88.5078 9.54688C88.4766 9.625 88.4453 9.71875 88.4141 9.82812C88.3984 9.9375 88.3828 10.0547 88.3672 10.1797H91.9766L91.6484 12.0781L88.3438 11.8906C88.2656 12.6875 88.2109 13.3047 88.1797 13.7422C88.1484 14.1797 88.1172 14.5 88.0859 14.7031L88.0391 15.125C87.9922 15.7188 87.9453 16.3672 87.8984 17.0703C87.8516 17.7578 87.8359 18.3984 87.8516 18.9922C87.8672 19.5859 87.9219 20.0859 88.0156 20.4922C88.1094 20.8828 88.2734 21.0781 88.5078 21.0781C88.7422 21.0781 88.9609 21.0156 89.1641 20.8906C89.3672 20.7656 89.5391 20.6172 89.6797 20.4453C89.8359 20.2734 89.9531 20.1016 90.0312 19.9297C90.1094 19.7422 90.1484 19.6016 90.1484 19.5078C90.1484 19.4141 90.125 19.3047 90.0781 19.1797C90 18.9453 89.8594 18.6484 89.6562 18.2891C90.1094 18.3984 90.5078 18.5078 90.8516 18.6172C91.0234 18.6797 91.1797 18.7422 91.3203 18.8047C91.4766 18.8672 91.6562 18.9375 91.8594 19.0156C92.0312 19.0938 92.25 19.1875 92.5156 19.2969C92.7812 19.4062 93.0938 19.5391 93.4531 19.6953C93.1094 19.7578 92.8594 19.8594 92.7031 20C92.6094 20.0625 92.5391 20.1328 92.4922 20.2109C92.3828 20.3828 92.2578 20.6172 92.1172 20.9141C91.9766 21.1953 91.7656 21.4766 91.4844 21.7578C91.2031 22.0391 90.8203 22.2891 90.3359 22.5078C89.8672 22.7266 89.2344 22.8516 88.4375 22.8828C87.6094 22.9141 86.9766 22.7734 86.5391 22.4609C86.1172 22.1484 85.8047 21.7891 85.6016 21.3828C85.4141 20.9609 85.3047 20.5469 85.2734 20.1406C85.2422 19.7344 85.2188 19.4609 85.2031 19.3203C85.1875 19.1797 85.1875 18.8281 85.2031 18.2656C85.2188 17.7031 85.2422 17.0859 85.2734 16.4141C85.3047 15.7266 85.3359 15.0703 85.3672 14.4453C85.3984 13.8047 85.4141 13.3359 85.4141 13.0391C85.4141 12.8828 85.4219 12.7188 85.4375 12.5469C85.4375 12.4062 85.4375 12.2578 85.4375 12.1016C85.4531 11.9297 85.4609 11.7656 85.4609 11.6094L82.0625 11.5859L81.9219 10.25L85.3438 10.3438C85.3125 10.1719 85.2734 10.0156 85.2266 9.875C85.1953 9.71875 85.1641 9.59375 85.1328 9.5C85.0859 9.39062 85.0391 9.29688 84.9922 9.21875C84.9297 9.14062 84.8594 9.05469 84.7812 8.96094C84.7031 8.88281 84.6016 8.78125 84.4766 8.65625C84.3516 8.53125 84.2031 8.39062 84.0312 8.23438ZM98.5859 19.2266C99.0234 19.2266 99.4297 19.1797 99.8047 19.0859C100.117 19.0078 100.414 18.8828 100.695 18.7109C100.992 18.5234 101.188 18.25 101.281 17.8906C101.594 17.9531 101.859 18.0078 102.078 18.0547C102.297 18.0859 102.484 18.1172 102.641 18.1484C102.812 18.1953 102.961 18.2266 103.086 18.2422C103.211 18.2734 103.359 18.3047 103.531 18.3359C103.688 18.3672 103.875 18.4062 104.094 18.4531C104.328 18.4844 104.602 18.5312 104.914 18.5938C104.68 18.5625 104.438 18.5859 104.188 18.6641C103.953 18.7422 103.727 18.8281 103.508 18.9219C103.258 19.0312 103.023 19.1641 102.805 19.3203C102.664 19.4141 102.5 19.5547 102.312 19.7422C102.141 19.9297 101.891 20.1094 101.562 20.2812C101.234 20.4531 100.797 20.6016 100.25 20.7266C99.7188 20.8359 99.0312 20.875 98.1875 20.8438C97.1719 20.8125 96.3203 20.6328 95.6328 20.3047C94.9453 19.9609 94.3906 19.5469 93.9688 19.0625C93.5469 18.5625 93.2422 18.0234 93.0547 17.4453C92.8672 16.8672 92.7656 16.3281 92.75 15.8281C92.7344 15.3281 92.8828 14.8047 93.1953 14.2578C93.5078 13.7109 93.9453 13.2109 94.5078 12.7578C95.0859 12.3047 95.7812 11.9375 96.5938 11.6562C97.4062 11.3594 98.2969 11.2109 99.2656 11.2109C99.8281 11.2109 100.344 11.2812 100.812 11.4219C101.297 11.5469 101.734 11.7188 102.125 11.9375C102.531 12.1562 102.883 12.4062 103.18 12.6875C103.477 12.9531 103.727 13.2266 103.93 13.5078C104.133 13.8047 104.305 14.1172 104.445 14.4453C104.57 14.7266 104.672 15.0469 104.75 15.4062C104.828 15.7656 104.852 16.1328 104.82 16.5078C103.633 16.5391 102.672 16.5625 101.938 16.5781C101.219 16.5938 100.656 16.6016 100.25 16.6016H99.1953H98.3984C98.1172 16.6016 97.75 16.6094 97.2969 16.625C96.8438 16.6406 96.2891 16.6641 95.6328 16.6953C95.7109 17.3203 95.9062 17.8047 96.2188 18.1484C96.5469 18.4766 96.8906 18.7266 97.25 18.8984C97.6562 19.0859 98.1016 19.1953 98.5859 19.2266ZM96.4766 15.0078C96.9766 15.0391 97.3906 15.0625 97.7188 15.0781C98.0625 15.0938 98.3438 15.1094 98.5625 15.125C98.7969 15.1406 98.9844 15.1484 99.125 15.1484H99.7109C100.102 15.1484 100.828 15.125 101.891 15.0781C101.844 14.3906 101.695 13.8672 101.445 13.5078C101.211 13.1484 100.961 12.8828 100.695 12.7109C100.383 12.5234 100.039 12.4141 99.6641 12.3828C98.6484 12.3984 97.8906 12.6094 97.3906 13.0156C96.9062 13.4219 96.6016 14.0859 96.4766 15.0078ZM126.547 14.6797C126.359 14.6484 126.125 14.625 125.844 14.6094C125.578 14.5938 125.32 14.5859 125.07 14.5859C124.789 14.5859 124.492 14.5938 124.18 14.6094C123.852 14.625 123.523 14.6406 123.195 14.6562C122.914 14.6719 122.594 14.6953 122.234 14.7266C121.891 14.7422 121.555 14.7656 121.227 14.7969C121.352 14.7344 121.461 14.6484 121.555 14.5391C121.664 14.4297 121.758 14.3203 121.836 14.2109C121.914 14.0859 121.984 13.9531 122.047 13.8125C122.125 13.5781 122.117 13.2969 122.023 12.9688C121.93 12.625 121.758 12.3125 121.508 12.0312C121.273 11.75 120.969 11.5312 120.594 11.375C120.234 11.2031 119.836 11.1641 119.398 11.2578C118.93 11.3672 118.508 11.5312 118.133 11.75C117.773 11.9688 117.469 12.2734 117.219 12.6641C116.984 13.0391 116.812 13.5078 116.703 14.0703C116.609 14.6172 116.586 15.2734 116.633 16.0391C116.695 16.9922 116.852 17.75 117.102 18.3125C117.352 18.875 117.656 19.2969 118.016 19.5781C118.375 19.8594 118.766 20.0312 119.188 20.0938C119.625 20.1406 120.055 20.1406 120.477 20.0938C120.773 20.0312 121.047 19.8984 121.297 19.6953C121.5 19.5234 121.688 19.2734 121.859 18.9453C122.031 18.6172 122.109 18.1641 122.094 17.5859L124.953 17.4688C124.625 18.3906 124.227 19.125 123.758 19.6719C123.289 20.2031 122.836 20.6172 122.398 20.9141C121.883 21.2578 121.367 21.4922 120.852 21.6172C120.211 21.7266 119.641 21.7734 119.141 21.7578C118.641 21.7266 118.188 21.6484 117.781 21.5234C117.375 21.3984 117 21.2422 116.656 21.0547C116.312 20.8672 115.984 20.6641 115.672 20.4453C115.469 20.3047 115.242 20.0703 114.992 19.7422C114.742 19.4141 114.508 19.0234 114.289 18.5703C114.07 18.1016 113.891 17.5859 113.75 17.0234C113.609 16.4609 113.555 15.8828 113.586 15.2891C113.617 14.6797 113.758 14.0703 114.008 13.4609C114.258 12.8516 114.656 12.2656 115.203 11.7031C116.031 10.8594 116.914 10.3125 117.852 10.0625C118.805 9.79688 119.703 9.72656 120.547 9.85156C121.391 9.96094 122.141 10.2031 122.797 10.5781C123.453 10.9531 123.914 11.3594 124.18 11.7969C124.445 12.2344 124.641 12.5703 124.766 12.8047C124.906 13.0234 125.008 13.1953 125.07 13.3203C125.148 13.4297 125.211 13.5156 125.258 13.5781C125.32 13.625 125.406 13.6953 125.516 13.7891C125.594 13.8672 125.688 13.9531 125.797 14.0469C125.891 14.125 126 14.2188 126.125 14.3281C126.25 14.4375 126.391 14.5547 126.547 14.6797ZM126.078 5.23438C126.438 5.29687 126.766 5.34375 127.062 5.375C127.359 5.39062 127.609 5.40625 127.812 5.42188C128.047 5.4375 128.25 5.44531 128.422 5.44531C128.656 5.42969 128.93 5.40625 129.242 5.375C129.508 5.34375 129.828 5.30469 130.203 5.25781C130.594 5.21094 131.039 5.14844 131.539 5.07031C131.305 5.19531 131.109 5.32031 130.953 5.44531C130.797 5.55469 130.672 5.67187 130.578 5.79688C130.469 5.9375 130.383 6.07031 130.32 6.19531C130.242 6.39844 130.156 6.82031 130.062 7.46094C129.969 8.00781 129.852 8.82031 129.711 9.89844C129.586 10.9766 129.422 12.4375 129.219 14.2812C129.781 13.7188 130.312 13.2969 130.812 13.0156C131.328 12.7188 131.781 12.5078 132.172 12.3828C132.625 12.2422 133.047 12.1719 133.438 12.1719C133.922 12.2188 134.414 12.375 134.914 12.6406C135.43 12.8906 135.906 13.1875 136.344 13.5312C136.797 13.875 137.188 14.2422 137.516 14.6328C137.859 15.0234 138.102 15.3672 138.242 15.6641C138.336 15.8672 138.383 16.1328 138.383 16.4609C138.383 16.7734 138.352 17.1172 138.289 17.4922C138.227 17.8672 138.141 18.25 138.031 18.6406C137.922 19.0312 137.812 19.3984 137.703 19.7422C137.609 20.0859 137.523 20.3906 137.445 20.6562C137.367 20.9062 137.32 21.0859 137.305 21.1953C137.273 21.4297 137.289 21.6562 137.352 21.875C137.398 22.0625 137.492 22.2656 137.633 22.4844C137.773 22.6875 137.984 22.8594 138.266 23C138.047 22.9688 137.812 22.9453 137.562 22.9297C137.328 22.8984 137.102 22.875 136.883 22.8594C136.633 22.8438 136.383 22.8359 136.133 22.8359H135.289C135.023 22.8359 134.719 22.8438 134.375 22.8594C134.031 22.8594 133.656 22.8672 133.25 22.8828C133.469 22.8047 133.656 22.7031 133.812 22.5781C133.969 22.4375 134.102 22.3047 134.211 22.1797C134.336 22.0391 134.445 21.8906 134.539 21.7344C134.602 21.6094 134.68 21.375 134.773 21.0312C134.867 20.6719 134.953 20.2656 135.031 19.8125C135.109 19.3438 135.164 18.8516 135.195 18.3359C135.242 17.8203 135.25 17.3281 135.219 16.8594C135.203 16.375 135.133 15.9453 135.008 15.5703C134.898 15.1953 134.727 14.9219 134.492 14.75C133.789 14.2188 133.148 13.9609 132.57 13.9766C132.008 13.9766 131.469 14.2031 130.953 14.6562C130.766 14.8281 130.586 15 130.414 15.1719C130.258 15.3281 130.086 15.5156 129.898 15.7344C129.711 15.9375 129.539 16.1484 129.383 16.3672C129.383 16.6016 129.391 16.8594 129.406 17.1406C129.422 17.4219 129.438 17.6953 129.453 17.9609C129.469 18.2578 129.492 18.5547 129.523 18.8516C129.555 19.3047 129.602 19.75 129.664 20.1875C129.711 20.5625 129.773 20.9766 129.852 21.4297C129.93 21.8672 130.031 22.2656 130.156 22.625C129.953 22.5938 129.742 22.5859 129.523 22.6016C129.305 22.6016 129.094 22.6016 128.891 22.6016C128.656 22.6172 128.43 22.625 128.211 22.625C128.008 22.6406 127.797 22.6641 127.578 22.6953C127.391 22.7266 127.188 22.7578 126.969 22.7891C126.75 22.8047 126.539 22.8359 126.336 22.8828C126.523 22.5234 126.68 22.1719 126.805 21.8281C126.93 21.4688 127.031 21.1562 127.109 20.8906C127.203 20.5781 127.281 20.2734 127.344 19.9766C127.391 19.7422 127.422 19.2969 127.438 18.6406C127.469 17.9688 127.492 17.2031 127.508 16.3438C127.523 15.4688 127.531 14.5469 127.531 13.5781C127.531 12.6094 127.523 11.6875 127.508 10.8125C127.492 9.9375 127.461 9.17188 127.414 8.51562C127.383 7.85938 127.344 7.40625 127.297 7.15625C127.234 6.90625 127.148 6.65625 127.039 6.40625C126.945 6.1875 126.82 5.97656 126.664 5.77344C126.508 5.55469 126.312 5.375 126.078 5.23438ZM139.555 12.5234L143.867 12.5703C143.617 13.5234 143.43 14.3359 143.305 15.0078C143.195 15.6797 143.125 16.2422 143.094 16.6953C143.031 17.2109 143.016 17.6484 143.047 18.0078C143.094 18.3359 143.172 18.6875 143.281 19.0625C143.375 19.375 143.516 19.7344 143.703 20.1406C143.891 20.5469 144.141 20.9531 144.453 21.3594C144.266 21.2969 144.062 21.25 143.844 21.2188C143.625 21.1875 143.422 21.1641 143.234 21.1484C143.016 21.1328 142.797 21.1328 142.578 21.1484C142.359 21.1641 142.117 21.1875 141.852 21.2188C141.633 21.25 141.367 21.2891 141.055 21.3359C140.742 21.3828 140.414 21.4453 140.07 21.5234C140.305 20.8203 140.484 20.2109 140.609 19.6953C140.75 19.1797 140.852 18.75 140.914 18.4062C140.977 18 141.016 17.6719 141.031 17.4219C141.031 17.1094 141.031 16.7578 141.031 16.3672C141.031 15.9609 141.031 15.5703 141.031 15.1953C141.031 14.8203 141.023 14.4922 141.008 14.2109C140.992 13.9141 140.961 13.7266 140.914 13.6484L140.68 13.4141C140.586 13.3359 140.445 13.2266 140.258 13.0859C140.086 12.9297 139.852 12.7422 139.555 12.5234ZM141.219 8.91406C141.547 8.74219 141.875 8.69531 142.203 8.77344C142.547 8.85156 142.812 9 143 9.21875C143.188 9.4375 143.25 9.69531 143.188 9.99219C143.141 10.2891 142.891 10.5781 142.438 10.8594C141.984 11.125 141.586 11.2188 141.242 11.1406C140.898 11.0625 140.656 10.8984 140.516 10.6484C140.375 10.3984 140.352 10.1094 140.445 9.78125C140.539 9.4375 140.797 9.14844 141.219 8.91406ZM145.836 23.6562C145.992 23.4219 146.117 23.2031 146.211 23C146.305 22.7969 146.383 22.625 146.445 22.4844C146.508 22.3125 146.555 22.1562 146.586 22.0156C146.602 21.9219 146.609 21.6484 146.609 21.1953C146.609 20.7422 146.594 20.1719 146.562 19.4844C146.547 18.7969 146.523 18.0234 146.492 17.1641C146.477 16.3047 146.445 15.4297 146.398 14.5391C146.367 13.6484 146.328 12.7812 146.281 11.9375C146.25 11.0938 146.219 10.3359 146.188 9.66406C146.156 8.97656 146.125 8.41406 146.094 7.97656C146.062 7.53906 146.039 7.28906 146.023 7.22656C145.992 7.13281 145.938 7.03906 145.859 6.94531C145.703 6.75781 145.438 6.57813 145.062 6.40625C145.859 6.20313 146.469 6.03906 146.891 5.91406C147.141 5.85156 147.359 5.78906 147.547 5.72656C147.719 5.66406 147.891 5.60156 148.062 5.53906C148.203 5.47656 148.359 5.40625 148.531 5.32812C148.703 5.23438 148.859 5.13281 149 5.02344C148.922 5.47656 148.859 5.91406 148.812 6.33594C148.766 6.75781 148.727 7.14844 148.695 7.50781C148.664 7.91406 148.648 8.30469 148.648 8.67969C148.57 9.44531 148.523 10.2812 148.508 11.1875C148.508 12.0781 148.516 12.9844 148.531 13.9062C148.547 14.8281 148.578 15.7266 148.625 16.6016C148.672 17.4766 148.719 18.2734 148.766 18.9922C148.828 19.6953 148.883 20.2969 148.93 20.7969C148.992 21.2812 149.039 21.5938 149.07 21.7344C149.133 21.9688 149.195 22.1953 149.258 22.4141C149.32 22.6016 149.391 22.7969 149.469 23C149.547 23.2188 149.641 23.3906 149.75 23.5156H147.477C147.273 23.5156 147.078 23.5234 146.891 23.5391C146.719 23.5547 146.539 23.5703 146.352 23.5859C146.164 23.6016 145.992 23.625 145.836 23.6562ZM151.133 23.6562C151.289 23.4219 151.414 23.2031 151.508 23C151.602 22.7969 151.68 22.625 151.742 22.4844C151.805 22.3125 151.852 22.1562 151.883 22.0156C151.898 21.9219 151.906 21.6484 151.906 21.1953C151.906 20.7422 151.891 20.1719 151.859 19.4844C151.844 18.7969 151.82 18.0234 151.789 17.1641C151.773 16.3047 151.742 15.4297 151.695 14.5391C151.664 13.6484 151.625 12.7812 151.578 11.9375C151.547 11.0938 151.516 10.3359 151.484 9.66406C151.453 8.97656 151.422 8.41406 151.391 7.97656C151.359 7.53906 151.336 7.28906 151.32 7.22656C151.289 7.13281 151.234 7.03906 151.156 6.94531C151 6.75781 150.734 6.57813 150.359 6.40625C151.156 6.20313 151.766 6.03906 152.188 5.91406C152.438 5.85156 152.656 5.78906 152.844 5.72656C153.016 5.66406 153.188 5.60156 153.359 5.53906C153.5 5.47656 153.656 5.40625 153.828 5.32812C154 5.23438 154.156 5.13281 154.297 5.02344C154.219 5.47656 154.156 5.91406 154.109 6.33594C154.062 6.75781 154.023 7.14844 153.992 7.50781C153.961 7.91406 153.945 8.30469 153.945 8.67969C153.867 9.44531 153.82 10.2812 153.805 11.1875C153.805 12.0781 153.812 12.9844 153.828 13.9062C153.844 14.8281 153.875 15.7266 153.922 16.6016C153.969 17.4766 154.016 18.2734 154.062 18.9922C154.125 19.6953 154.18 20.2969 154.227 20.7969C154.289 21.2812 154.336 21.5938 154.367 21.7344C154.43 21.9688 154.492 22.1953 154.555 22.4141C154.617 22.6016 154.688 22.7969 154.766 23C154.844 23.2188 154.938 23.3906 155.047 23.5156H152.773C152.57 23.5156 152.375 23.5234 152.188 23.5391C152.016 23.5547 151.836 23.5703 151.648 23.5859C151.461 23.6016 151.289 23.625 151.133 23.6562ZM155.891 12.5234L160.203 12.5703C159.953 13.5234 159.766 14.3359 159.641 15.0078C159.531 15.6797 159.461 16.2422 159.43 16.6953C159.367 17.2109 159.352 17.6484 159.383 18.0078C159.43 18.3359 159.508 18.6875 159.617 19.0625C159.711 19.375 159.852 19.7344 160.039 20.1406C160.227 20.5469 160.477 20.9531 160.789 21.3594C160.602 21.2969 160.398 21.25 160.18 21.2188C159.961 21.1875 159.758 21.1641 159.57 21.1484C159.352 21.1328 159.133 21.1328 158.914 21.1484C158.695 21.1641 158.453 21.1875 158.188 21.2188C157.969 21.25 157.703 21.2891 157.391 21.3359C157.078 21.3828 156.75 21.4453 156.406 21.5234C156.641 20.8203 156.82 20.2109 156.945 19.6953C157.086 19.1797 157.188 18.75 157.25 18.4062C157.312 18 157.352 17.6719 157.367 17.4219C157.367 17.1094 157.367 16.7578 157.367 16.3672C157.367 15.9609 157.367 15.5703 157.367 15.1953C157.367 14.8203 157.359 14.4922 157.344 14.2109C157.328 13.9141 157.297 13.7266 157.25 13.6484L157.016 13.4141C156.922 13.3359 156.781 13.2266 156.594 13.0859C156.422 12.9297 156.188 12.7422 155.891 12.5234ZM157.555 8.91406C157.883 8.74219 158.211 8.69531 158.539 8.77344C158.883 8.85156 159.148 9 159.336 9.21875C159.523 9.4375 159.586 9.69531 159.523 9.99219C159.477 10.2891 159.227 10.5781 158.773 10.8594C158.32 11.125 157.922 11.2188 157.578 11.1406C157.234 11.0625 156.992 10.8984 156.852 10.6484C156.711 10.3984 156.688 10.1094 156.781 9.78125C156.875 9.4375 157.133 9.14844 157.555 8.91406ZM167.727 19.2266C168.164 19.2266 168.57 19.1797 168.945 19.0859C169.258 19.0078 169.555 18.8828 169.836 18.7109C170.133 18.5234 170.328 18.25 170.422 17.8906C170.734 17.9531 171 18.0078 171.219 18.0547C171.438 18.0859 171.625 18.1172 171.781 18.1484C171.953 18.1953 172.102 18.2266 172.227 18.2422C172.352 18.2734 172.5 18.3047 172.672 18.3359C172.828 18.3672 173.016 18.4062 173.234 18.4531C173.469 18.4844 173.742 18.5312 174.055 18.5938C173.82 18.5625 173.578 18.5859 173.328 18.6641C173.094 18.7422 172.867 18.8281 172.648 18.9219C172.398 19.0312 172.164 19.1641 171.945 19.3203C171.805 19.4141 171.641 19.5547 171.453 19.7422C171.281 19.9297 171.031 20.1094 170.703 20.2812C170.375 20.4531 169.938 20.6016 169.391 20.7266C168.859 20.8359 168.172 20.875 167.328 20.8438C166.312 20.8125 165.461 20.6328 164.773 20.3047C164.086 19.9609 163.531 19.5469 163.109 19.0625C162.688 18.5625 162.383 18.0234 162.195 17.4453C162.008 16.8672 161.906 16.3281 161.891 15.8281C161.875 15.3281 162.023 14.8047 162.336 14.2578C162.648 13.7109 163.086 13.2109 163.648 12.7578C164.227 12.3047 164.922 11.9375 165.734 11.6562C166.547 11.3594 167.438 11.2109 168.406 11.2109C168.969 11.2109 169.484 11.2812 169.953 11.4219C170.438 11.5469 170.875 11.7188 171.266 11.9375C171.672 12.1562 172.023 12.4062 172.32 12.6875C172.617 12.9531 172.867 13.2266 173.07 13.5078C173.273 13.8047 173.445 14.1172 173.586 14.4453C173.711 14.7266 173.812 15.0469 173.891 15.4062C173.969 15.7656 173.992 16.1328 173.961 16.5078C172.773 16.5391 171.812 16.5625 171.078 16.5781C170.359 16.5938 169.797 16.6016 169.391 16.6016H168.336H167.539C167.258 16.6016 166.891 16.6094 166.438 16.625C165.984 16.6406 165.43 16.6641 164.773 16.6953C164.852 17.3203 165.047 17.8047 165.359 18.1484C165.688 18.4766 166.031 18.7266 166.391 18.8984C166.797 19.0859 167.242 19.1953 167.727 19.2266ZM165.617 15.0078C166.117 15.0391 166.531 15.0625 166.859 15.0781C167.203 15.0938 167.484 15.1094 167.703 15.125C167.938 15.1406 168.125 15.1484 168.266 15.1484H168.852C169.242 15.1484 169.969 15.125 171.031 15.0781C170.984 14.3906 170.836 13.8672 170.586 13.5078C170.352 13.1484 170.102 12.8828 169.836 12.7109C169.523 12.5234 169.18 12.4141 168.805 12.3828C167.789 12.3984 167.031 12.6094 166.531 13.0156C166.047 13.4219 165.742 14.0859 165.617 15.0078ZM185.234 9.61719C185.094 9.96094 184.969 10.2734 184.859 10.5547C184.766 10.8359 184.68 11.0859 184.602 11.3047C184.523 11.5547 184.453 11.7734 184.391 11.9609C184.328 12.1797 184.258 12.4297 184.18 12.7109C184.102 12.9609 184 13.2734 183.875 13.6484C183.766 14.0078 183.633 14.4375 183.477 14.9375C183.352 14.1875 183.125 13.5938 182.797 13.1562C182.469 12.7031 182.133 12.3516 181.789 12.1016C181.383 11.8203 180.945 11.6172 180.477 11.4922C179.633 11.3516 179.023 11.3672 178.648 11.5391C178.273 11.7109 178.023 11.9297 177.898 12.1953C177.836 12.3047 177.766 12.4453 177.688 12.6172C177.625 12.7734 177.57 12.9375 177.523 13.1094C177.492 13.2812 177.484 13.4531 177.5 13.625C177.516 13.7969 177.586 13.9375 177.711 14.0469C177.789 14.125 177.992 14.2344 178.32 14.375C178.648 14.5 179.039 14.6484 179.492 14.8203C179.961 14.9766 180.453 15.1484 180.969 15.3359C181.5 15.5234 182 15.7109 182.469 15.8984C182.938 16.0859 183.344 16.2734 183.688 16.4609C184.031 16.6484 184.258 16.8203 184.367 16.9766C184.461 17.1328 184.562 17.3438 184.672 17.6094C184.797 17.8594 184.883 18.1406 184.93 18.4531C184.992 18.75 185.008 19.0625 184.977 19.3906C184.961 19.7031 184.875 20.0156 184.719 20.3281C184.562 20.6406 184.312 20.9297 183.969 21.1953C183.641 21.4609 183.195 21.6797 182.633 21.8516C181.977 22.0547 181.344 22.1094 180.734 22.0156C180.125 21.9219 179.562 21.7812 179.047 21.5938C178.547 21.4062 178.109 21.2266 177.734 21.0547C177.359 20.8672 177.094 20.7891 176.938 20.8203C176.766 20.8516 176.57 20.9375 176.352 21.0781C176.133 21.2188 175.922 21.3672 175.719 21.5234C175.531 21.6641 175.367 21.7969 175.227 21.9219C175.086 22.0312 175.016 22.0703 175.016 22.0391C175.016 22.0078 175.039 21.9141 175.086 21.7578C175.148 21.6016 175.211 21.4141 175.273 21.1953C175.352 20.9609 175.422 20.7109 175.484 20.4453C175.562 20.1641 175.617 19.8984 175.648 19.6484C175.68 19.4453 175.719 19.1953 175.766 18.8984C175.797 18.6328 175.836 18.3125 175.883 17.9375C175.945 17.5469 176.016 17.0781 176.094 16.5312C176.172 16.9375 176.281 17.2891 176.422 17.5859C176.578 17.8828 176.727 18.1406 176.867 18.3594C177.039 18.6094 177.203 18.8203 177.359 18.9922C177.594 19.2109 177.867 19.4141 178.18 19.6016C178.508 19.7891 178.836 19.9531 179.164 20.0938C179.492 20.2188 179.805 20.2969 180.102 20.3281C180.398 20.3594 180.648 20.3281 180.852 20.2344C181.055 20.1406 181.227 19.9688 181.367 19.7188C181.523 19.4688 181.633 19.1953 181.695 18.8984C181.758 18.6016 181.781 18.3203 181.766 18.0547C181.75 17.7734 181.68 17.5469 181.555 17.375C181.461 17.2656 181.242 17.125 180.898 16.9531C180.57 16.7812 180.172 16.5938 179.703 16.3906C179.25 16.1875 178.766 15.9766 178.25 15.7578C177.75 15.5391 177.273 15.3203 176.82 15.1016C176.383 14.8672 176.016 14.6484 175.719 14.4453C175.438 14.2266 175.281 14.0312 175.25 13.8594C175.219 13.6094 175.195 13.3359 175.18 13.0391C175.164 12.7266 175.18 12.4219 175.227 12.125C175.289 11.8125 175.398 11.5156 175.555 11.2344C175.727 10.9531 175.977 10.7188 176.305 10.5312C176.523 10.4062 176.812 10.3125 177.172 10.25C177.531 10.1875 177.93 10.1562 178.367 10.1562C178.805 10.1406 179.258 10.1562 179.727 10.2031C180.195 10.2344 180.641 10.2812 181.062 10.3438C181.5 10.3906 181.891 10.4531 182.234 10.5312C182.594 10.6094 182.867 10.6797 183.055 10.7422C183.273 10.8203 183.508 10.8281 183.758 10.7656C183.977 10.7188 184.211 10.6172 184.461 10.4609C184.711 10.3047 184.969 10.0234 185.234 9.61719Z" fill="black"/>
    <path d="M13.016 29.134L12.9354 29.1162L12.8535 29.1252C10.0475 29.4337 7.99446 29.5414 6.51582 29.4861C5.01662 29.43 4.18733 29.2076 3.75899 28.9273C3.55913 28.7965 3.45762 28.6602 3.404 28.5247C3.34796 28.383 3.32816 28.2009 3.36054 27.9581C3.42822 27.4509 3.70042 26.8186 4.07937 26.032C4.1446 25.8966 4.21257 25.7574 4.28218 25.6149C4.6026 24.9587 4.95755 24.2319 5.2382 23.4794C5.58158 22.5588 5.83102 21.5582 5.77932 20.5263C5.67475 18.4395 4.35871 16.4384 0.807195 14.7257C0.312264 12.6564 0.445451 11.0653 0.99122 9.8343C1.55607 8.56028 2.59239 7.60538 3.98877 6.89534C6.81079 5.46038 10.9752 5.08908 15.1532 5.08908H15.4559L15.5962 4.82092C17.1599 1.83302 18.7719 0.673416 20.2151 0.518658C21.6694 0.362702 23.1802 1.2007 24.5973 2.75354C26.0021 4.293 27.232 6.44993 28.1106 8.70126C28.9898 10.9541 29.5 13.2571 29.5 15.0759C29.5 18.7369 27.8365 22.8107 24.9315 25.6887C22.0406 28.5529 17.9361 30.2206 13.016 29.134Z" fill="#C5C0FA" stroke="#1E1587"/>
    </svg>
    