<svg width="24" height="24" viewBox="0 0 24 24" fill="none" xmlns="http://www.w3.org/2000/svg">
<path d="M7.59013 24H2.53004C1.85903 24 1.21551 23.6839 0.741033 23.1213C0.266558 22.5587 0 21.7956 0 21V3C0 2.20435 0.266558 1.44129 0.741033 0.87868C1.21551 0.31607 1.85903 0 2.53004 0H7.59013V3H2.53004V21H7.59013V24Z" fill="black"/>
<path d="M14.3304 20.0775L16.1267 17.9655L11.1679 12.036H22.7352C23.0707 12.036 23.3925 11.8779 23.6297 11.5966C23.867 11.3153 24.0002 10.9338 24.0002 10.536C24.0002 10.1381 23.867 9.75662 23.6297 9.47531C23.3925 9.19401 23.0707 9.03597 22.7352 9.03597H11.1451L16.1799 3.11547L14.3987 0.985474L6.31396 10.491L14.3304 20.0775Z" fill="black"/>
</svg>
