<svg width="9" height="15" viewBox="0 0 9 15" fill="none" xmlns="http://www.w3.org/2000/svg">
<path d="M1 0.638672C1 0.506064 0.947322 0.378887 0.853553 0.285118C0.759785 0.19135 0.632608 0.138672 0.5 0.138672C0.367392 0.138672 0.240215 0.19135 0.146447 0.285118C0.0526786 0.378887 5.21142e-08 0.506064 5.21142e-08 0.638672V3.63867C-0.000117575 4.215 0.198892 4.77367 0.563347 5.22012C0.927802 5.66658 1.43532 5.97341 2 6.08867V13.6387C2 13.7713 2.05268 13.8985 2.14645 13.9922C2.24021 14.086 2.36739 14.1387 2.5 14.1387C2.63261 14.1387 2.75979 14.086 2.85355 13.9922C2.94732 13.8985 3 13.7713 3 13.6387V6.08867C3.56468 5.97341 4.0722 5.66658 4.43665 5.22012C4.80111 4.77367 5.00012 4.215 5 3.63867V0.638672C5 0.506064 4.94732 0.378887 4.85355 0.285118C4.75979 0.19135 4.63261 0.138672 4.5 0.138672C4.36739 0.138672 4.24021 0.19135 4.14645 0.285118C4.05268 0.378887 4 0.506064 4 0.638672V3.63867C4.00016 3.949 3.90407 4.25174 3.72497 4.50516C3.54587 4.75859 3.29258 4.95023 3 5.05367V0.638672C3 0.506064 2.94732 0.378887 2.85355 0.285118C2.75979 0.19135 2.63261 0.138672 2.5 0.138672C2.36739 0.138672 2.24021 0.19135 2.14645 0.285118C2.05268 0.378887 2 0.506064 2 0.638672V5.05367C1.70742 4.95023 1.45413 4.75859 1.27503 4.50516C1.09593 4.25174 0.999837 3.949 1 3.63867V0.638672ZM8 13.6387V7.13867H6.5C6.36739 7.13867 6.24021 7.08599 6.14645 6.99223C6.05268 6.89846 6 6.77128 6 6.63867V2.63867C6 1.97567 6.326 1.35567 6.771 0.909672C7.217 0.464672 7.837 0.138672 8.5 0.138672C8.63261 0.138672 8.75979 0.19135 8.85355 0.285118C8.94732 0.378887 9 0.506064 9 0.638672V13.6387C9 13.7713 8.94732 13.8985 8.85355 13.9922C8.75979 14.086 8.63261 14.1387 8.5 14.1387C8.36739 14.1387 8.24021 14.086 8.14645 13.9922C8.05268 13.8985 8 13.7713 8 13.6387Z" fill="black" fill-opacity="0.3"/>
</svg>
