<svg width="24" height="24" viewBox="0 0 24 24" fill="none" xmlns="http://www.w3.org/2000/svg">
<path d="M8.71642 24L8.23881 20.16C7.9801 20.06 7.73652 19.94 7.50806 19.8C7.27881 19.66 7.05473 19.51 6.83582 19.35L3.28358 20.85L0 15.15L3.07463 12.81C3.05473 12.67 3.04478 12.5348 3.04478 12.4044V11.5944C3.04478 11.4648 3.05473 11.33 3.07463 11.19L0 8.85L3.28358 3.15L6.83582 4.65C7.05473 4.49 7.28358 4.34 7.52239 4.2C7.76119 4.06 8 3.94 8.23881 3.84L8.71642 0H15.2836L15.7612 3.84C16.0199 3.94 16.2639 4.06 16.4931 4.2C16.7216 4.34 16.9453 4.49 17.1642 4.65L20.7164 3.15L24 8.85L20.9254 11.19C20.9453 11.33 20.9552 11.4648 20.9552 11.5944V12.4044C20.9552 12.5348 20.9353 12.67 20.8955 12.81L23.9701 15.15L20.6866 20.85L17.1642 19.35C16.9453 19.51 16.7164 19.66 16.4776 19.8C16.2388 19.94 16 20.06 15.7612 20.16L15.2836 24H8.71642ZM10.806 21.6H13.1642L13.5821 18.42C14.199 18.26 14.7713 18.0248 15.2991 17.7144C15.8261 17.4048 16.3085 17.03 16.7463 16.59L19.7015 17.82L20.8657 15.78L18.2985 13.83C18.398 13.55 18.4677 13.2548 18.5075 12.9444C18.5473 12.6348 18.5672 12.32 18.5672 12C18.5672 11.68 18.5473 11.3648 18.5075 11.0544C18.4677 10.7448 18.398 10.45 18.2985 10.17L20.8657 8.22L19.7015 6.18L16.7463 7.44C16.3085 6.98 15.8261 6.5948 15.2991 6.2844C14.7713 5.9748 14.199 5.74 13.5821 5.58L13.194 2.4H10.8358L10.4179 5.58C9.801 5.74 9.22906 5.9748 8.70209 6.2844C8.17433 6.5948 7.69154 6.97 7.25373 7.41L4.29851 6.18L3.13433 8.22L5.70149 10.14C5.60199 10.44 5.53234 10.74 5.49254 11.04C5.45274 11.34 5.43284 11.66 5.43284 12C5.43284 12.32 5.45274 12.63 5.49254 12.93C5.53234 13.23 5.60199 13.53 5.70149 13.83L3.13433 15.78L4.29851 17.82L7.25373 16.56C7.69154 17.02 8.17433 17.4048 8.70209 17.7144C9.22906 18.0248 9.801 18.26 10.4179 18.42L10.806 21.6ZM12 16.8C12.3383 16.8 12.6221 16.6848 12.8513 16.4544C13.0798 16.2248 13.194 15.94 13.194 15.6C13.194 15.26 13.0798 14.9748 12.8513 14.7444C12.6221 14.5148 12.3383 14.4 12 14.4C11.6617 14.4 11.3783 14.5148 11.1499 14.7444C10.9206 14.9748 10.806 15.26 10.806 15.6C10.806 15.94 10.9206 16.2248 11.1499 16.4544C11.3783 16.6848 11.6617 16.8 12 16.8ZM10.806 13.2H13.194V7.2H10.806V13.2Z" fill="black" fill-opacity="0.6"/>
</svg>
