<svg width="19" height="20" viewBox="0 0 19 20" fill="none" xmlns="http://www.w3.org/2000/svg">
<path d="M12.9156 11.3219C13.3513 10.992 13.7042 10.5653 13.9466 10.0756C14.1891 9.58584 14.3143 9.04645 14.3125 8.5C14.3125 7.55517 13.9372 6.64903 13.2691 5.98093C12.601 5.31283 11.6948 4.9375 10.75 4.9375C9.80517 4.9375 8.89903 5.31283 8.23093 5.98093C7.56283 6.64903 7.1875 7.55517 7.1875 8.5C7.18568 9.04645 7.31093 9.58584 7.55335 10.0756C7.79578 10.5653 8.14874 10.992 8.58438 11.3219C7.47628 11.7397 6.51037 12.465 5.8 13.4125C5.71049 13.5318 5.67206 13.6819 5.69315 13.8295C5.71425 13.9772 5.79315 14.1105 5.9125 14.2C6.03185 14.2895 6.18186 14.3279 6.32955 14.3068C6.47723 14.2857 6.61049 14.2068 6.7 14.0875C7.17156 13.4588 7.78303 12.9484 8.48598 12.597C9.18894 12.2455 9.96407 12.0625 10.75 12.0625C11.5359 12.0625 12.3111 12.2455 13.014 12.597C13.717 12.9484 14.3284 13.4588 14.8 14.0875C14.8443 14.1466 14.8998 14.1964 14.9634 14.234C15.027 14.2717 15.0973 14.2964 15.1705 14.3068C15.2436 14.3173 15.318 14.3132 15.3896 14.2949C15.4612 14.2766 15.5284 14.2443 15.5875 14.2C15.6466 14.1557 15.6964 14.1002 15.734 14.0366C15.7717 13.973 15.7964 13.9027 15.8068 13.8295C15.8173 13.7564 15.8132 13.682 15.7949 13.6104C15.7766 13.5388 15.7443 13.4716 15.7 13.4125C14.9896 12.465 14.0237 11.7397 12.9156 11.3219ZM8.3125 8.5C8.3125 8.01791 8.45546 7.54664 8.72329 7.1458C8.99113 6.74495 9.37181 6.43253 9.81721 6.24804C10.2626 6.06356 10.7527 6.01528 11.2255 6.10934C11.6984 6.20339 12.1327 6.43554 12.4736 6.77643C12.8145 7.11732 13.0466 7.55164 13.1407 8.02447C13.2347 8.4973 13.1864 8.9874 13.002 9.43279C12.8175 9.87819 12.505 10.2589 12.1042 10.5267C11.7034 10.7945 11.2321 10.9375 10.75 10.9375C10.1043 10.935 9.48574 10.6774 9.02916 10.2208C8.57257 9.76426 8.31497 9.14571 8.3125 8.5ZM17.5 0.4375H4C3.6519 0.4375 3.31806 0.575781 3.07192 0.821922C2.82578 1.06806 2.6875 1.4019 2.6875 1.75V3.8125H1C0.850816 3.8125 0.707742 3.87176 0.602252 3.97725C0.496763 4.08274 0.4375 4.22582 0.4375 4.375C0.4375 4.52418 0.496763 4.66726 0.602252 4.77275C0.707742 4.87824 0.850816 4.9375 1 4.9375H2.6875V7.5625H1C0.850816 7.5625 0.707742 7.62176 0.602252 7.72725C0.496763 7.83274 0.4375 7.97582 0.4375 8.125C0.4375 8.27418 0.496763 8.41726 0.602252 8.52275C0.707742 8.62824 0.850816 8.6875 1 8.6875H2.6875V11.3125H1C0.850816 11.3125 0.707742 11.3718 0.602252 11.4773C0.496763 11.5827 0.4375 11.7258 0.4375 11.875C0.4375 12.0242 0.496763 12.1673 0.602252 12.2727C0.707742 12.3782 0.850816 12.4375 1 12.4375H2.6875V15.0625H1C0.850816 15.0625 0.707742 15.1218 0.602253 15.2273C0.496763 15.3327 0.4375 15.4758 0.4375 15.625C0.4375 15.7742 0.496763 15.9173 0.602253 16.0227C0.707742 16.1282 0.850816 16.1875 1 16.1875H2.6875V18.25C2.6875 18.5981 2.82578 18.9319 3.07192 19.1781C3.31806 19.4242 3.6519 19.5625 4 19.5625H17.5C17.8481 19.5625 18.1819 19.4242 18.4281 19.1781C18.6742 18.9319 18.8125 18.5981 18.8125 18.25V1.75C18.8125 1.4019 18.6742 1.06806 18.4281 0.821922C18.1819 0.575781 17.8481 0.4375 17.5 0.4375ZM17.6875 18.25C17.6875 18.2997 17.6677 18.3474 17.6326 18.3826C17.5974 18.4177 17.5497 18.4375 17.5 18.4375H4C3.95027 18.4375 3.90258 18.4177 3.86742 18.3826C3.83225 18.3474 3.8125 18.2997 3.8125 18.25V1.75C3.8125 1.70027 3.83225 1.65258 3.86742 1.61742C3.90258 1.58225 3.95027 1.5625 4 1.5625H17.5C17.5497 1.5625 17.5974 1.58225 17.6326 1.61742C17.6677 1.65258 17.6875 1.70027 17.6875 1.75V18.25Z" fill="black" fill-opacity="0.6"/>
</svg>
