<svg width="22" height="21" viewBox="0 0 22 21" fill="none" xmlns="http://www.w3.org/2000/svg">
<path fill-rule="evenodd" clip-rule="evenodd" d="M11 0C4.925 0 0 4.66149 0 10.4114C0 16.1614 4.925 20.8229 11 20.8229C17.075 20.8229 22 16.1614 22 10.4114C22 4.66149 17.075 0 11 0ZM12 14.1974C12 14.4484 11.8946 14.6892 11.7071 14.8667C11.5196 15.0442 11.2652 15.1439 11 15.1439C10.7348 15.1439 10.4804 15.0442 10.2929 14.8667C10.1054 14.6892 10 14.4484 10 14.1974V11.3579H7C6.73478 11.3579 6.48043 11.2582 6.29289 11.0807C6.10536 10.9032 6 10.6625 6 10.4114C6 10.1604 6.10536 9.91967 6.29289 9.74217C6.48043 9.56466 6.73478 9.46494 7 9.46494H10V6.62546C10 6.37444 10.1054 6.13369 10.2929 5.95619C10.4804 5.77869 10.7348 5.67897 11 5.67897C11.2652 5.67897 11.5196 5.77869 11.7071 5.95619C11.8946 6.13369 12 6.37444 12 6.62546V9.46494H15C15.2652 9.46494 15.5196 9.56466 15.7071 9.74217C15.8946 9.91967 16 10.1604 16 10.4114C16 10.6625 15.8946 10.9032 15.7071 11.0807C15.5196 11.2582 15.2652 11.3579 15 11.3579H12V14.1974Z" fill="#2B2B43"/>
</svg>
