<svg class="favourite heart-fill" fill="#DDA85C"  width="22" height="19" viewBox="0 0 22 19"  xmlns="http://www.w3.org/2000/svg">
<path  d="M10.5782 3.46844L11 4.13131L11.4218 3.46844C12.3796 1.9634 14.0701 1 16 1C19.0239 1 21.5 3.47614 21.5 6.5C21.5 7.84956 20.8788 9.24594 19.878 10.6106C18.8811 11.97 17.541 13.2522 16.1834 14.363C14.8282 15.4718 13.4706 16.3977 12.4503 17.0469C11.9407 17.3712 11.5164 17.6258 11.2204 17.7988C11.1366 17.8477 11.0632 17.8901 11.001 17.9257C10.9386 17.8898 10.865 17.847 10.781 17.7975C10.4848 17.6232 10.0605 17.3669 9.55082 17.0406C8.53042 16.3874 7.17254 15.4567 5.81714 14.3447C4.45927 13.2306 3.11886 11.9466 2.12172 10.5892C1.12048 9.22611 0.5 7.83624 0.5 6.5C0.5 3.47614 2.97614 1 6 1C7.92993 1 9.62042 1.9634 10.5782 3.46844Z" stroke="#DDA85C" class="heart-stroke"/>
</svg>
