<svg width="24" height="24" viewBox="0 0 24 24" fill="none" xmlns="http://www.w3.org/2000/svg">
<path d="M24 17.0273L16.9679 23.5664L13.5718 20.4023L14.708 19.3477L16.9679 21.4336L22.8638 15.9727L24 17.0273ZM11.3119 7.5H6.46397V6H11.3119V7.5ZM11.3119 10.5H6.46397V9H11.3119V10.5ZM6.46397 12H11.3119V13.5H6.46397V12ZM4.84797 7.5H3.23198V6H4.84797V7.5ZM4.84797 10.5H3.23198V9H4.84797V10.5ZM3.23198 12H4.84797V13.5H3.23198V12ZM12.9279 7.5V1.5H1.61599V22.5H12.9279V24H0V0H14.0768L21.0079 6.43359V15L19.3919 16.5V7.5H12.9279ZM14.5439 6H18.243L14.5439 2.56641V6Z" fill="black" fill-opacity="0.6"/>
</svg>
