<svg width="24" height="24" viewBox="0 0 24 24" fill="none" xmlns="http://www.w3.org/2000/svg">
<path d="M21.8182 5.33333V2.66667H6.54545V5.33333H21.8182ZM21.8182 16V9.33333H6.54545V16H21.8182ZM21.8182 0C22.3968 0 22.9518 0.280951 23.361 0.781048C23.7701 1.28115 24 1.95942 24 2.66667V16C24 16.7072 23.7701 17.3855 23.361 17.8856C22.9518 18.3857 22.3968 18.6667 21.8182 18.6667H6.54545C5.9668 18.6667 5.41185 18.3857 5.00268 17.8856C4.59351 17.3855 4.36364 16.7072 4.36364 16V2.66667C4.36364 1.18667 5.33455 0 6.54545 0H21.8182ZM2.18182 21.3333H18.5455V24H2.18182C1.60316 24 1.04821 23.719 0.63904 23.219C0.22987 22.7189 0 22.0406 0 21.3333V6.66667H2.18182V21.3333Z" fill="black" fill-opacity="0.6"/>
</svg>
