<svg width="22" height="21" viewBox="0 0 22 21" fill="none" xmlns="http://www.w3.org/2000/svg">
<path fill-rule="evenodd" clip-rule="evenodd" d="M11 0C4.925 0 0 4.66149 0 10.4114C0 16.1614 4.925 20.8229 11 20.8229C17.075 20.8229 22 16.1614 22 10.4114C22 4.66149 17.075 0 11 0ZM7 9.46494C6.73478 9.46494 6.48043 9.56466 6.29289 9.74217C6.10536 9.91967 6 10.1604 6 10.4114C6 10.6625 6.10536 10.9032 6.29289 11.0807C6.48043 11.2582 6.73478 11.3579 7 11.3579H15C15.2652 11.3579 15.5196 11.2582 15.7071 11.0807C15.8946 10.9032 16 10.6625 16 10.4114C16 10.1604 15.8946 9.91967 15.7071 9.74217C15.5196 9.56466 15.2652 9.46494 15 9.46494H7Z" fill="#DADADA"/>
</svg>

